<?xml version="1.0" standalone="no"?>
<svg xmlns:xlink="http://www.w3.org/1999/xlink" id="wave" style="transform:rotate(0deg); transition: 0.3s" viewBox="0 0 1440 420" version="1.1" xmlns="http://www.w3.org/2000/svg"><defs><linearGradient id="sw-gradient-0" x1="0" x2="0" y1="1" y2="0"><stop stop-color="rgba(126, 34, 206, 1)" offset="0%"/><stop stop-color="rgba(216, 180, 254, 1)" offset="100%"/></linearGradient></defs><path style="transform:translate(0, 0px); opacity:1" fill="url(#sw-gradient-0)" d="M0,168L20,175C40,182,80,196,120,210C160,224,200,238,240,217C280,196,320,140,360,133C400,126,440,168,480,217C520,266,560,322,600,294C640,266,680,154,720,126C760,98,800,154,840,161C880,168,920,126,960,147C1000,168,1040,252,1080,259C1120,266,1160,196,1200,196C1240,196,1280,266,1320,301C1360,336,1400,336,1440,301C1480,266,1520,196,1560,161C1600,126,1640,126,1680,147C1720,168,1760,210,1800,203C1840,196,1880,140,1920,126C1960,112,2000,140,2040,126C2080,112,2120,56,2160,84C2200,112,2240,224,2280,245C2320,266,2360,196,2400,168C2440,140,2480,154,2520,182C2560,210,2600,252,2640,280C2680,308,2720,322,2760,287C2800,252,2840,168,2860,126L2880,84L2880,420L2860,420C2840,420,2800,420,2760,420C2720,420,2680,420,2640,420C2600,420,2560,420,2520,420C2480,420,2440,420,2400,420C2360,420,2320,420,2280,420C2240,420,2200,420,2160,420C2120,420,2080,420,2040,420C2000,420,1960,420,1920,420C1880,420,1840,420,1800,420C1760,420,1720,420,1680,420C1640,420,1600,420,1560,420C1520,420,1480,420,1440,420C1400,420,1360,420,1320,420C1280,420,1240,420,1200,420C1160,420,1120,420,1080,420C1040,420,1000,420,960,420C920,420,880,420,840,420C800,420,760,420,720,420C680,420,640,420,600,420C560,420,520,420,480,420C440,420,400,420,360,420C320,420,280,420,240,420C200,420,160,420,120,420C80,420,40,420,20,420L0,420Z"/></svg>